<?xml version="1.0" encoding="UTF-8"?>
<svg id="_图层_1" xmlns="http://www.w3.org/2000/svg" version="1.1" viewBox="0 0 20 20">
    <path d="M0 0H20V20H0V0Z" fill="none"/>
    <path fill="#0000007f"
          d="M14.4,5.6c-.4-.4-1-.4-1.4,0l-3,3-3-3c-.4-.4-1-.4-1.4,0-.4.4-.4,1,0,1.4l3,3-3,3c-.4.4-.4,1,0,1.4.4.4,1,.4,1.4,0l3-3,3,3c.4.4,1,.4,1.4,0,.4-.4.4-1,0-1.4l-3-3,3-3c.4-.4.4-1,0-1.4Z"/>
    <path fill="#e74c3c"
          d="M17.1,2.9C13.2-1,6.8-1,2.9,2.9c-3.9,3.9-3.9,10.2,0,14.1s10.2,3.9,14.1,0c3.9-3.9,3.9-10.2,0-14.1ZM14.4,13c.4.4.4,1,0,1.4-.4.4-1,.4-1.4,0l-3-3-3,3c-.4.4-1,.4-1.4,0-.4-.4-.4-1,0-1.4l3-3-3-3c-.4-.4-.4-1,0-1.4.4-.4,1-.4,1.4,0l3,3,3-3c.4-.4,1-.4,1.4,0,.4.4.4,1,0,1.4l-3,3,3,3Z"/>
</svg>