<?xml version="1.0" encoding="UTF-8"?>
<svg id="_图层_1" xmlns="http://www.w3.org/2000/svg" version="1.1" viewBox="0 0 28 28">
  <!-- Generator: Adobe Illustrator 29.2.1, SVG Export Plug-In . SVG Version: 2.1.0 Build 116)  -->
  <defs>
    <style>
      .st0 {
      display: none;
      }
    </style>
  </defs>
  <g id="_图层_2">
    <path class="st0" d="M10,20v-11h5v-1h-6v5h-1v8c0,.6.4,1,1,1h9v-2h-8Z"/>
    <path d="M25,2h-11l-6,6v5h1v-5h6v-4h9v16h-6v2h7c.5,0,1-.4,1-1V3c0-.5-.4-1-1-1Z"/>
  </g>
  <g id="_图层_3">
    <path d="M19,6h-11l-6,6v13c0,.6.4,1,1,1h16c.5,0,1-.4,1-1V7c0-.5-.4-1-1-1ZM18,24H4v-11h5v-5h9v16Z"/>
  </g>
  <rect x="6.8" y="14.2" width="8" height="2"/>
  <rect x="6.8" y="17.2" width="8" height="2"/>
  <rect x="6.8" y="20.2" width="8" height="2"/>
  <rect x="20" y="10.2" width="2" height="2"/>
  <rect x="20" y="13.2" width="2" height="2"/>
  <rect x="20" y="16.2" width="2" height="2"/>
</svg>